<?xml version="1.0" encoding="utf-8"?>
<!-- Generator: Adobe Illustrator 28.2.0, SVG Export Plug-In . SVG Version: 6.00 Build 0)  -->
<svg version="1.1" id="Layer_1" xmlns="http://www.w3.org/2000/svg" xmlns:xlink="http://www.w3.org/1999/xlink" x="0px" y="0px"
	 viewBox="0 0 32 32" style="enable-background:new 0 0 32 32;" xml:space="preserve">
<style type="text/css">
	.st0{fill:#2D373C;}
	.st1{fill:#FFFFFF;}
</style>
<path class="st0" d="M32,14.1c0,7.7-7.2,14-16,14c-0.7,0-1.3,0-2-0.1l0,0c-1.3,2.2-5.2,3.3-8.4,4c-0.2,0-0.3-0.2-0.2-0.4
	c1.5-1.6,2.8-3.3,2.8-5.3C3.3,24,0,19.4,0,14.1c0-7.7,7.2-14,16-14S32,6.4,32,14.1z"/>
<g>
	<path class="st1" d="M11.9,7.8c1.2,0,2.2,0.3,2.9,0.8s1,1.4,1,2.5v6.2H14L13.5,16h-0.1c-0.4,0.5-0.8,0.9-1.3,1.1
		c-0.4,0.2-1,0.3-1.8,0.3c-0.8,0-1.5-0.2-2.1-0.7c-0.5-0.5-0.8-1.2-0.8-2.2c0-1,0.3-1.7,1-2.2c0.7-0.5,1.7-0.7,3.1-0.8l1.6,0v-0.4
		c0-0.5-0.1-0.8-0.4-1.1s-0.6-0.3-1.1-0.3c-0.4,0-0.9,0.1-1.3,0.2s-0.9,0.3-1.3,0.5L8.3,8.6C8.8,8.4,9.4,8.2,10,8
		C10.6,7.9,11.2,7.8,11.9,7.8z M11.9,7c-0.6,0-1.1-0.2-1.5-0.5C10,6.1,9.8,5.6,9.8,5c0-0.6,0.2-1.1,0.6-1.4C10.8,3.2,11.3,3,11.9,3
		c0.6,0,1.1,0.2,1.5,0.5C13.8,3.9,14,4.4,14,5c0,0.6-0.2,1.1-0.6,1.5C13,6.8,12.5,7,11.9,7z M13.2,13l-1,0c-0.8,0-1.4,0.2-1.7,0.4
		c-0.3,0.3-0.5,0.6-0.5,1.1c0,0.4,0.1,0.7,0.3,0.8c0.2,0.2,0.5,0.2,0.9,0.2c0.5,0,1-0.2,1.4-0.5c0.4-0.3,0.6-0.8,0.6-1.4V13z
		 M11.9,5.8c0.2,0,0.4-0.1,0.6-0.2c0.2-0.1,0.2-0.3,0.2-0.6c0-0.2-0.1-0.4-0.2-0.6c-0.2-0.1-0.3-0.2-0.6-0.2c-0.2,0-0.4,0.1-0.6,0.2
		c-0.2,0.1-0.2,0.3-0.2,0.6c0,0.2,0.1,0.4,0.2,0.6C11.4,5.8,11.6,5.8,11.9,5.8z"/>
</g>
<g>
	<path class="st1" d="M18.1,12.9c0-0.4,0.1-0.7,0.3-0.9c0.2-0.2,0.5-0.3,0.8-0.3c0.3,0,0.6,0.1,0.8,0.3s0.3,0.5,0.3,0.9
		c0,0.4-0.1,0.6-0.3,0.8S19.6,14,19.3,14c-0.3,0-0.6-0.1-0.8-0.3C18.2,13.5,18.1,13.2,18.1,12.9z M22.2,24.5h-2.5v-9.3h2.5V24.5z
		 M21.4,12.9c0-0.4,0.1-0.7,0.3-0.9c0.2-0.2,0.5-0.3,0.8-0.3c0.3,0,0.6,0.1,0.8,0.3s0.4,0.5,0.4,0.9c0,0.4-0.1,0.6-0.4,0.8
		S22.9,14,22.6,14c-0.3,0-0.6-0.1-0.8-0.3C21.6,13.5,21.4,13.2,21.4,12.9z"/>
</g>
</svg>
